<?xml version="1.0" encoding="iso-8859-1"?>
<!-- Uploaded to: SVG Repo, www.svgrepo.com, Generator: SVG Repo Mixer Tools -->
<svg version="1.1" id="Layer_1" xmlns="http://www.w3.org/2000/svg" xmlns:xlink="http://www.w3.org/1999/xlink" 
	 viewBox="0 0 512 512" xml:space="preserve">
<rect x="33.551" y="82.557" style="fill:#FF9900;" width="444.898" height="346.896"/>
<rect x="255.52" y="82.557" style="fill:#FF8900;" width="222.929" height="346.896"/>
<path style="fill:#735538;" d="M17.897,66.893v378.213h476.205V66.893H17.897z M49.205,413.799V98.201h413.591v315.599
	L49.205,413.799L49.205,413.799z"/>
<polyline style="fill:#006659;" points="425.631,380.478 425.631,131.526 85.4,131.526 85.4,380.478 335.105,380.478 "/>
<polyline style="fill:#005349;" points="425.631,380.478 425.631,131.526 255.478,131.526 255.478,380.478 380.359,380.478 "/>
<rect y="413.799" style="fill:#735538;" width="512" height="31.307"/>
<rect x="335.103" y="349.233" style="fill:#FF4F18;" width="90.53" height="64.556"/>
<rect x="380.374" y="349.233" style="fill:#FF3400;" width="45.26" height="64.556"/>
<polygon style="fill:#5D412A;" points="512,413.799 512,445.107 255.52,445.107 255.52,413.799 462.795,413.799 462.795,98.201 
	255.52,98.201 255.52,66.893 494.103,66.893 494.103,413.799 "/>
<g>
	<path style="fill:#FFFFFF;" d="M194.462,262.923v12.491h-37.472v-12.491h12.317v-22.119c-0.521,0.694-1.331,1.403-2.428,2.125
		c-1.1,0.723-2.328,1.388-3.686,1.995c-1.36,0.607-2.748,1.099-4.164,1.475c-1.417,0.376-2.676,0.564-3.773,0.564v-12.838
		c0.925,0,2.125-0.317,3.599-0.954c1.475-0.636,2.934-1.402,4.38-2.298c1.445-0.896,2.746-1.806,3.903-2.733
		c1.156-0.925,1.878-1.676,2.169-2.254h14.138v37.038L194.462,262.923L194.462,262.923z"/>
	<path style="fill:#FFFFFF;" d="M227.597,239.07v11.103h-8.24v9.022h-12.491v-9.022h-8.153V239.07h8.153v-9.022h12.491v9.022
		H227.597z"/>
	<path style="fill:#FFFFFF;" d="M273.135,262.923v12.491h-37.472v-12.491h12.317v-22.119c-0.521,0.694-1.331,1.403-2.428,2.125
		c-1.1,0.723-2.328,1.388-3.686,1.995c-1.36,0.607-2.748,1.099-4.164,1.475c-1.417,0.376-2.675,0.564-3.773,0.564v-12.838
		c0.925,0,2.125-0.317,3.599-0.954c1.475-0.636,2.935-1.402,4.38-2.298s2.746-1.806,3.903-2.733
		c1.156-0.925,1.878-1.676,2.169-2.254h14.138v37.038L273.135,262.923L273.135,262.923z"/>
	<path style="fill:#FFFFFF;" d="M280.334,247.136v-8.846h27.496v8.846H280.334z M280.334,264.658v-8.847h27.496v8.847H280.334z"/>
	<path style="fill:#FFFFFF;" d="M316.33,275.414c0-2.717,0.202-5.147,0.607-7.285c0.404-2.139,1.098-4.091,2.082-5.855
		c0.982-1.763,2.313-3.396,3.99-4.9c1.676-1.503,3.787-2.978,6.331-4.424c2.717-1.504,4.987-2.747,6.809-3.73
		c1.821-0.982,3.266-1.849,4.336-2.602c1.07-0.751,1.836-1.432,2.299-2.039c0.461-0.606,0.694-1.315,0.694-2.125
		c0-1.619-0.579-2.919-1.735-3.903c-1.156-0.982-2.805-1.475-4.943-1.475c-2.428,0-4.541,0.594-6.331,1.778
		c-1.794,1.187-3.528,2.732-5.204,4.64l-8.847-10.235c0.924-1.04,2.168-2.052,3.729-3.036c1.561-0.982,3.325-1.865,5.291-2.645
		c1.966-0.781,4.12-1.402,6.462-1.865c2.342-0.461,4.785-0.694,7.329-0.694c6.245,0,11.03,1.36,14.355,4.077
		c3.326,2.717,4.987,6.39,4.987,11.016c0,1.909-0.304,3.615-0.91,5.118c-0.607,1.504-1.404,2.849-2.386,4.032
		c-0.983,1.187-2.082,2.227-3.296,3.123c-1.215,0.896-2.46,1.72-3.73,2.471c-0.867,0.521-1.909,1.128-3.122,1.822
		c-1.215,0.694-2.416,1.403-3.599,2.125c-1.187,0.723-2.285,1.446-3.297,2.169c-1.012,0.723-1.777,1.373-2.298,1.951h23.593v12.491
		H316.33V275.414z"/>
</g>
</svg>