<?xml version="1.0" encoding="iso-8859-1"?>
<!-- Uploaded to: SVG Repo, www.svgrepo.com, Generator: SVG Repo Mixer Tools -->
<svg version="1.1" id="Layer_1" xmlns="http://www.w3.org/2000/svg" xmlns:xlink="http://www.w3.org/1999/xlink" 
	 viewBox="0 0 512 512" xml:space="preserve">
<rect x="132.044" style="fill:#735538;" width="32.337" height="63.437"/>
<rect x="347.619" style="fill:#5D412A;" width="32.337" height="63.437"/>
<polygon style="fill:#735538;" points="406.593,479.663 406.593,512 353.237,512 353.237,479.663 358.153,479.663 324.016,416.876 
	186.454,416.876 152.327,479.663 158.762,479.663 158.762,512 105.405,512 105.405,479.663 115.516,479.663 214.339,297.864 
	242.742,313.31 204.023,384.538 306.445,384.538 267.728,313.31 296.141,297.864 394.952,479.663 "/>
<polygon style="fill:#5D412A;" points="406.593,479.663 406.593,512 353.237,512 353.237,479.663 358.153,479.663 324.016,416.876 
	255.547,416.876 255.547,384.538 306.445,384.538 267.728,313.31 296.141,297.864 394.952,479.663 "/>
<rect x="84.623" y="63.441" style="fill:#006659;" width="342.75" height="246.044"/>
<rect x="255.793" y="63.441" style="fill:#005349;" width="171.584" height="246.044"/>
<path style="fill:#FF9900;" d="M68.455,47.274v278.38h375.089V47.274H68.455z M411.207,293.316H100.792V79.61h310.415V293.316z"/>
<polygon style="fill:#E47500;" points="443.545,47.274 443.545,325.652 255.795,325.652 255.795,293.316 411.207,293.316 
	411.207,79.61 255.795,79.61 255.795,47.274 "/>
<g>
	<path style="fill:#EEE5DD;" d="M171.927,137.993l18.837,29.776l18.838-29.776h21.51l-29.896,43.751l28.925,42.536H208.63
		l-17.866-28.56l-17.865,28.56h-21.633l28.925-42.536l-29.897-43.751L171.927,137.993L171.927,137.993z"/>
	<path style="fill:#EEE5DD;" d="M276.321,173.359v15.556h-11.546v12.639h-17.5v-12.639h-11.424v-15.556h11.424V160.72h17.5v12.639
		H276.321z"/>
	<path style="fill:#EEE5DD;" d="M303.423,137.993l18.594,39.62l18.837-39.62h21.754L331.86,194.87v29.41H312.05v-29.653
		l-30.262-56.633L303.423,137.993L303.423,137.993z"/>
</g>
</svg>