<?xml version="1.0" encoding="iso-8859-1"?>
<!-- Uploaded to: SVG Repo, www.svgrepo.com, Generator: SVG Repo Mixer Tools -->
<svg version="1.1" id="Layer_1" xmlns="http://www.w3.org/2000/svg" xmlns:xlink="http://www.w3.org/1999/xlink" 
	 viewBox="0 0 512.003 512.003" xml:space="preserve">
<rect x="180.19" y="118.656" style="fill:#00A5FF;" width="151.613" height="259.008"/>
<rect x="255.996" y="118.656" style="fill:#0082D2;" width="75.807" height="259.008"/>
<rect x="28.581" y="178.255" style="fill:#FFAD1D;" width="151.613" height="199.408"/>
<rect x="104.383" y="178.255" style="fill:#FF8900;" width="75.807" height="199.408"/>
<rect x="331.803" y="211.715" style="fill:#00DDC0;" width="151.613" height="165.949"/>
<rect x="407.61" y="211.715" style="fill:#00AC93;" width="75.807" height="165.949"/>
<rect y="361.979" style="fill:#735538;" width="512.003" height="31.368"/>
<rect x="255.996" y="361.979" style="fill:#5D412A;" width="255.996" height="31.368"/>
<g>
	<path style="fill:#FFFFFF;" d="M274.864,254.358v10.68h-32.041v-10.68h10.531v-18.913c-0.444,0.593-1.138,1.199-2.077,1.817
		c-0.94,0.619-1.991,1.187-3.153,1.705c-1.163,0.52-2.349,0.94-3.56,1.261c-1.213,0.322-2.288,0.482-3.227,0.482v-10.977
		c0.79,0,1.817-0.271,3.078-0.816c1.261-0.544,2.508-1.198,3.745-1.966c1.236-0.765,2.348-1.544,3.338-2.336
		c0.989-0.79,1.607-1.434,1.854-1.928h12.089v31.669H274.864z"/>
	<path style="fill:#FFFFFF;" d="M85.322,294.688c0-2.323,0.173-4.401,0.519-6.231c0.346-1.829,0.939-3.498,1.781-5.006
		c0.841-1.508,1.977-2.904,3.412-4.19c1.434-1.285,3.238-2.546,5.414-3.783c2.323-1.285,4.265-2.348,5.822-3.189
		c1.558-0.84,2.793-1.582,3.709-2.225c0.914-0.642,1.569-1.224,1.965-1.743c0.395-0.52,0.593-1.124,0.593-1.817
		c0-1.383-0.495-2.496-1.483-3.338c-0.99-0.841-2.399-1.261-4.228-1.261c-2.077,0-3.882,0.507-5.414,1.52
		c-1.533,1.014-3.017,2.336-4.45,3.968l-7.565-8.752c0.79-0.89,1.854-1.755,3.189-2.595s2.843-1.595,4.524-2.263
		c1.68-0.667,3.523-1.198,5.526-1.595c2.002-0.395,4.09-0.593,6.267-0.593c5.34,0,9.431,1.162,12.274,3.486
		c2.843,2.325,4.265,5.464,4.265,9.42c0,1.632-0.259,3.091-0.779,4.376c-0.52,1.286-1.199,2.436-2.04,3.448
		c-0.842,1.014-1.78,1.904-2.818,2.67c-1.038,0.766-2.103,1.471-3.189,2.113c-0.741,0.444-1.631,0.964-2.67,1.557
		c-1.038,0.594-2.065,1.199-3.077,1.817c-1.014,0.619-1.954,1.237-2.819,1.854c-0.866,0.619-1.52,1.175-1.965,1.669h20.173v10.68
		L85.322,294.688L85.322,294.688z"/>
	<path style="fill:#FFFFFF;" d="M418.986,292.422c1.532,0.297,2.941,0.828,4.227,1.595c1.285,0.767,2.385,1.732,3.3,2.893
		c0.914,1.162,1.619,2.497,2.114,4.005c0.493,1.509,0.741,3.128,0.741,4.858c0,2.324-0.471,4.412-1.409,6.267
		c-0.94,1.854-2.288,3.436-4.042,4.746c-1.756,1.31-3.87,2.323-6.342,3.041c-2.473,0.716-5.242,1.076-8.306,1.076
		c-7.517,0-13.399-2.201-17.652-6.601l6.378-8.456c1.335,1.384,2.856,2.436,4.561,3.153c1.705,0.717,3.745,1.075,6.119,1.075
		c5.587,0,8.381-2.05,8.381-6.155c0-2.225-0.829-3.905-2.484-5.044c-1.657-1.137-4.265-1.705-7.824-1.705h-2.225v-8.529h2.448
		c2.769,0,4.932-0.568,6.49-1.705c1.557-1.137,2.336-2.644,2.336-4.524c0-1.632-0.569-2.867-1.705-3.708
		c-1.138-0.841-2.646-1.261-4.524-1.261c-2.028,0-3.87,0.482-5.526,1.446c-1.657,0.964-3.053,2.336-4.19,4.116l-7.492-8.603
		c0.79-1.038,1.829-2.002,3.115-2.893c1.285-0.89,2.745-1.643,4.376-2.262c1.631-0.618,3.386-1.1,5.266-1.446
		c1.878-0.346,3.807-0.52,5.785-0.52c2.62,0,5.018,0.31,7.194,0.927c2.176,0.619,4.03,1.509,5.563,2.67
		c1.532,1.162,2.719,2.547,3.56,4.153c0.84,1.607,1.261,3.4,1.261,5.378c0,1.483-0.235,2.892-0.705,4.227
		c-0.471,1.335-1.125,2.548-1.966,3.635c-0.842,1.087-1.842,1.991-3.003,2.707C421.643,291.692,420.37,292.174,418.986,292.422z"/>
</g>
</svg>